<svg width="32" height="32" viewBox="0 0 32 32" fill="none" xmlns="http://www.w3.org/2000/svg">
<path d="M32 16C32 24.8363 24.8363 32 16 32C7.16375 32 0 24.8369 0 16C0 7.16313 7.16313 0 16 0C24.8369 0 32 7.16375 32 16Z" fill="#FF9827"/>
<path fill-rule="evenodd" clip-rule="evenodd" d="M24 20.7798C23.9982 20.9845 23.942 21.1854 23.8366 21.364L17.7907 15.5774L23.7636 10.5151C23.9169 10.7206 23.9992 10.9659 23.9993 11.2174L24 20.7798ZM15.4967 15.846L23.5228 10.2762C23.2977 10.098 23.0137 10.0003 22.7202 10H8.27761C7.98339 10.0017 7.69922 10.1014 7.475 10.2817L15.4967 15.846ZM17.1559 16.116L15.4967 17.5212L13.8426 16.1188L7.79531 21.9082C7.94784 21.9686 8.11152 21.9998 8.27688 22H22.7246C22.8897 21.9998 23.0531 21.9686 23.2054 21.9082L17.1559 16.116ZM7.23276 10.5227C7.08154 10.7274 7.0003 10.9711 7 11.2209V20.7798C7.00164 20.9845 7.05786 21.1854 7.16344 21.364L13.2078 15.5843L7.23276 10.5227Z" fill="#293329"/>
</svg>
