<svg width="205" height="72" viewBox="0 0 205 72" fill="none" xmlns="http://www.w3.org/2000/svg">
<g clip-path="url(#clip0_15_122)">
<path d="M160.715 49.6246C160.715 42.8045 156.667 39.1998 149.878 39.8694C145.935 40.2586 142.743 42.0298 140.189 45.0662C136.974 37.8957 126.642 38.6509 120.819 43.8983C120.819 43.221 120.819 41.6678 120.819 41.2902C120.819 39.3828 120.371 39.3906 118.919 39.4489C116.132 39.5618 113.333 39.519 110.538 39.4489C109.538 39.4256 109.141 39.6669 109.144 40.7608C109.183 50.2863 109.187 60.9719 109.144 70.4974C109.144 71.7041 109.615 71.891 110.655 71.8715C113.508 71.8131 116.362 71.7859 119.219 71.8715C120.5 71.9144 120.869 71.5445 120.85 70.256C120.78 64.8374 120.815 59.4187 120.827 54C120.827 53.4433 120.725 52.875 121.06 52.3378C121.998 50.8274 124.797 49.788 126.712 50.2746C128.367 50.695 129.048 51.8668 129.048 54.3153C129.048 59.6756 129.075 65.0398 129.048 70.4001C129.048 71.5017 129.344 71.8949 130.488 71.8637C133.396 71.7937 136.327 71.7859 139.216 71.8637C140.426 71.8988 140.773 71.5134 140.753 70.3066C140.695 64.8919 140.722 59.4732 140.73 54.0545C140.685 53.5447 140.736 53.0309 140.882 52.5402C141.551 50.9559 144.553 49.7803 146.565 50.2396C148.231 50.6289 149.022 51.7967 149.029 54.0156C149.029 59.3759 149.068 64.74 149.006 70.1003C149.006 71.3771 149.232 71.926 150.676 71.8598C153.467 71.7353 156.27 71.747 159.061 71.8598C160.439 71.9143 160.778 71.4706 160.762 70.1393C160.704 63.2958 160.762 56.4485 160.731 49.6051" fill="#293329"/>
<path d="M103.889 39.5229C101.04 39.5774 98.1826 39.6086 95.3253 39.5229C94.0446 39.4801 93.6787 39.8499 93.6942 41.1384C93.7643 46.5571 93.7293 52.4273 93.7176 57.8266C93.7176 58.3832 93.8188 58.9516 93.4879 59.4849C92.5459 60.9991 89.7509 62.0346 87.8357 61.5519C86.1813 61.1315 85.5 59.9598 85.5 57.5112C85.5 52.151 85.4728 46.3547 85.5195 40.9944C85.5195 39.8888 85.2236 39.4996 84.0792 39.5307C81.1713 39.6008 78.2401 39.6086 75.3556 39.5307C74.3162 39.4996 73.923 39.7837 73.8374 40.6129V46.2651C73.8374 51.8084 73.8374 57.3517 73.8374 62.8949V64.4754C73.8374 66.4217 74.9819 68.3214 76.3988 69.6099C80.7626 73.5882 88.8556 72.3542 93.7371 67.9555C93.7371 68.6367 93.7371 69.7227 93.7371 70.1042C93.7371 71.8599 94.1847 72.0039 95.6367 71.9455C98.4278 71.8287 101.227 71.8754 104.018 71.9455C105.018 71.9455 105.415 71.7275 105.411 70.6298C105.372 61.1081 105.369 50.4537 105.411 40.9282C105.411 39.7175 104.94 39.5307 103.901 39.5541" fill="#293329"/>
<path d="M70.513 41.1228C70.5636 39.772 70.1237 39.445 68.8703 39.4567C66.8032 39.4567 58.9049 39.484 51.9758 39.4879C47.2422 39.4879 42.3452 39.4879 40.9243 39.4567C39.7098 39.4567 39.2465 39.6747 39.2465 41.0917C39.2465 49.2041 39.3555 46.5415 39.2465 49.2664C39.192 50.6172 39.6358 50.9442 40.8893 50.9325C42.0571 50.9325 45.3036 50.9325 49.1574 50.9091C49.1574 53.5328 49.1574 56.3862 49.1574 59.0839C49.1574 64.051 49.1575 68.4537 49.1302 69.9446C49.1302 71.2175 49.3482 71.7703 50.7613 71.7041C53.4862 71.5795 56.2111 71.5912 58.936 71.7041C60.2868 71.7586 60.6138 71.3148 60.6021 69.9835C60.5826 67.8153 60.5748 59.5277 60.5709 52.2638C60.5709 51.8006 60.5709 51.3451 60.5709 50.8936C64.4014 50.8936 67.6051 50.8936 68.8119 50.9208C70.0186 50.9481 70.5519 50.7028 70.4896 49.2898C70.369 46.5649 70.3806 43.8399 70.4896 41.0956" fill="#293329"/>
<path d="M124.392 9.87588C124.392 3.05581 120.344 -0.548867 113.555 0.120683C109.612 0.509956 106.42 2.28115 103.866 5.31748C100.651 -1.85293 90.3192 -1.10163 84.4957 4.13021C84.4609 3.64813 84.4609 3.16418 84.4957 2.68211C84.7799 1.09777 84.048 0.78245 82.596 0.840841C79.8088 0.957623 77.01 0.91091 74.215 0.840841C73.2146 0.821377 72.8175 1.05883 72.8214 2.15269C72.8603 11.6795 72.8603 21.205 72.8214 30.7293C72.8214 31.936 73.2924 32.1228 74.3318 32.1034C77.1851 32.045 80.0385 32.0177 82.8958 32.1034C84.1765 32.1462 84.5463 31.7764 84.5268 30.484C84.4568 25.0692 84.4957 19.6505 84.5035 14.2318C84.5035 13.6752 84.4023 13.1068 84.737 12.5696C85.6752 11.0593 88.4741 10.0199 90.3893 10.5065C92.0437 10.9269 92.7249 12.0986 92.7249 14.5472C92.7249 19.9075 92.7522 25.2678 92.7055 30.6319C92.7055 31.7336 93.0013 32.1228 94.1458 32.0956C97.0536 32.0216 99.9654 32.0177 102.873 32.0956C104.084 32.1306 104.43 31.7452 104.43 30.5385C104.372 25.1237 104.399 19.705 104.407 14.2863C104.362 13.7765 104.413 13.2627 104.559 12.7721C105.228 11.1877 108.23 10.0121 110.242 10.4715C111.908 10.8607 112.699 12.0286 112.706 14.2474C112.706 19.6077 112.745 24.9719 112.683 30.3322C112.683 31.6051 112.909 32.1579 114.353 32.0917C117.144 31.9671 119.947 31.9788 122.738 32.0917C124.116 32.1462 124.455 31.7024 124.443 30.3711C124.381 23.5277 124.443 16.6804 124.408 9.83695" fill="#293329"/>
<path d="M67.8543 0.284149C65.0009 0.338647 62.1475 0.369789 59.2902 0.284149C58.0095 0.241329 57.6436 0.611136 57.6592 1.89963C57.7293 7.31832 57.6942 12.737 57.6825 18.1557C57.6825 18.7124 57.7838 19.2807 57.449 19.814C56.5108 21.3283 53.7158 22.3637 51.7967 21.8771C50.1423 21.4606 49.4611 20.285 49.4611 17.8404C49.4611 12.4801 49.4338 7.1159 49.4806 1.7556C49.4806 0.650065 49.1847 0.260788 48.0402 0.29193C45.1324 0.361999 42.2206 0.369785 39.3127 0.29193C38.2773 0.260788 37.8841 0.544957 37.7985 1.37411V6.59427C37.7985 12.1375 37.7985 17.6808 37.7985 23.2201V24.8045C37.7985 26.7508 38.9429 28.6505 40.3599 29.939C44.7236 33.9135 52.8166 32.6834 57.6942 28.2846C57.729 28.7679 57.729 29.2532 57.6942 29.7366C57.4101 31.3209 58.1419 31.6362 59.5939 31.5739C62.3811 31.4611 65.1838 31.5039 67.9749 31.5739C68.9754 31.5934 69.3724 31.3559 69.3685 30.2582C69.3296 20.734 69.3296 11.2098 69.3685 1.68554C69.3685 0.474895 68.8975 0.288045 67.8581 0.311401" fill="#293329"/>
<path d="M34.4701 12.8967C34.4701 7.92953 34.4701 3.52685 34.5013 2.03593C34.5013 0.759116 34.2794 0.210245 32.8663 0.276421C30.1414 0.400989 27.4165 0.389311 24.6916 0.276421C23.3408 0.221923 23.0138 0.665688 23.0255 1.997C23.0372 3.32832 23.0255 7.11595 23.0488 11.5225H14.0956H11.4913C11.4913 7.13152 11.4913 3.37893 11.5186 2.02815C11.5186 0.751335 11.3006 0.202452 9.88751 0.268628C7.1626 0.393196 4.43768 0.381518 1.71277 0.268628C0.365886 0.21413 0.0350039 0.657907 0.0466821 1.98922C0.0466821 4.15747 0.0739319 12.4451 0.0778246 19.7089C0.0778246 24.6761 0.0778239 29.0787 0.0466821 30.5697C0.0466821 31.8426 0.268567 32.3954 1.68163 32.3292C4.40654 32.2046 7.13146 32.2163 9.85637 32.3292C11.2071 32.3837 11.5341 31.9399 11.5225 30.6047C11.5108 29.2695 11.503 25.4858 11.4991 21.0831H19.0705H23.0683C23.0683 25.4741 23.0683 29.2228 23.0411 30.5775C23.0411 31.8504 23.259 32.4032 24.6721 32.337C27.397 32.2124 30.1219 32.2241 32.8469 32.337C34.1937 32.3915 34.5246 31.9477 34.5129 30.6125C34.4935 28.4442 34.4818 20.1605 34.4818 12.8967" fill="#293329"/>
<path d="M202.998 0.798072C199.861 0.872034 196.723 0.945993 193.586 0.868139C192.356 0.836997 191.931 1.31581 191.589 2.3941C190.098 7.06537 188.529 11.7133 186.964 16.3612C186.773 16.9257 186.773 17.6108 186.034 18.0935C185.757 17.3149 185.489 16.5753 185.255 15.8396C183.698 11.3046 182.141 6.7773 180.658 2.21502C180.339 1.24184 179.879 0.883708 178.84 0.914849C175.765 1.00438 172.678 1.0511 169.602 0.953779C168.069 0.903174 167.948 1.26519 168.489 2.61597C171.942 11.2462 175.321 19.9075 178.708 28.561C179.552 30.7137 178.676 32.01 176.372 32.0645C174.776 32.0918 173.176 32.0645 171.58 32.0645C168.419 32.0645 167.944 31.5818 167.944 28.382C167.944 22.1536 167.944 15.9486 167.944 9.728C167.944 6.03769 166.586 3.04028 163.187 1.25741C159.575 -0.638349 154.004 -0.24908 150.084 1.83743C148.548 2.53882 147.116 3.44927 145.83 4.54288C144.98 3.11036 143.726 1.96066 142.225 1.23795C138.282 -0.759019 133.077 -0.182901 129.239 1.77904C128.925 1.92691 128.624 2.10142 128.34 2.30066L128.141 2.42523C127.111 3.07818 126.192 3.89014 125.416 4.83094V13.0757C125.818 12.675 126.254 12.3103 126.72 11.9858C126.724 11.9906 126.728 11.9945 126.734 11.9972C126.739 11.9999 126.745 12.0014 126.751 12.0014C126.757 12.0014 126.763 11.9999 126.769 11.9972C126.774 11.9945 126.779 11.9906 126.782 11.9858C126.895 11.8846 127.016 11.8028 127.133 11.7094C128.179 11.0534 129.338 10.5968 130.551 10.3625C131.495 10.3338 132.435 10.5077 133.307 10.8725C135.545 11.7873 135.366 13.9049 135.366 15.8591C135.366 20.8158 135.366 25.7726 135.366 30.7293C135.366 31.5079 135.288 32.1813 136.46 32.1618C139.648 32.0995 142.84 32.119 146.028 32.1618C146.888 32.1618 147.083 31.7959 147.079 31.029C147.06 24.8707 147.102 18.7124 147.048 12.5541L147.784 11.9196C149.703 10.2847 151.902 9.92263 154.183 10.853C156.394 11.7561 156.348 13.8232 156.344 15.8046C156.344 21.0559 156.301 26.3149 156.344 31.5507C156.406 38.4836 161.615 43.6493 168.516 43.6882C172.282 43.7064 176.045 43.7064 179.805 43.6882C184.924 43.661 189.234 40.757 191.094 35.9689C195.435 24.68 199.697 13.3911 204.042 2.10214C204.509 0.8915 204.112 0.782497 203.061 0.805853" fill="#FF9827"/>
<path d="M176.983 66.013C176.983 67.0601 176.673 68.0836 176.091 68.9542C175.509 69.8249 174.682 70.5034 173.715 70.9041C172.748 71.3048 171.683 71.4096 170.656 71.2054C169.629 71.0011 168.686 70.4969 167.946 69.7565C167.205 69.0161 166.701 68.0728 166.497 67.0458C166.292 66.0189 166.397 64.9544 166.798 63.987C167.199 63.0196 167.877 62.1928 168.748 61.6111C169.618 61.0294 170.642 60.7189 171.689 60.7189C173.093 60.7189 174.44 61.2766 175.433 62.2695C176.425 63.2623 176.983 64.6089 176.983 66.013Z" fill="#FF9827"/>
</g>
<defs>
<clipPath id="clip0_15_122">
<rect width="204.17" height="72" fill="white"/>
</clipPath>
</defs>
</svg>
