<svg width="32" height="32" viewBox="0 0 32 32" fill="none" xmlns="http://www.w3.org/2000/svg">
<path d="M30.9034 9.85464C30.8866 8.59501 30.6504 7.34789 30.2054 6.16909C29.8194 5.17477 29.23 4.27176 28.4747 3.51774C27.7195 2.76372 26.8149 2.17527 25.819 1.79C24.6534 1.35318 23.422 1.11699 22.1773 1.09147C20.5746 1.01996 20.0665 1 15.9983 1C11.9301 1 11.4087 1 9.81775 1.09147C8.57357 1.11718 7.34276 1.35337 6.1777 1.79C5.18157 2.175 4.27691 2.76335 3.5216 3.51741C2.76629 4.27146 2.17696 5.17462 1.79131 6.16909C1.35289 7.33185 1.11682 8.56089 1.09329 9.80308C1.02166 11.4047 1 11.912 1 15.9734C1 20.0348 1 20.5537 1.09329 22.1437C1.11828 23.3877 1.35318 24.6151 1.79131 25.781C2.17761 26.7752 2.76737 27.678 3.52294 28.4317C4.2785 29.1854 5.18325 29.7736 6.17937 30.1584C7.34124 30.6128 8.57226 30.8659 9.81942 30.9069C11.4237 30.9784 11.9318 31 16 31C20.0682 31 20.5896 31 22.1806 30.9069C23.4253 30.8824 24.6568 30.6467 25.8223 30.21C26.818 29.8243 27.7223 29.2357 28.4775 28.4817C29.2327 27.7278 29.8223 26.825 30.2087 25.8309C30.6468 24.6667 30.8817 23.4393 30.9067 22.1936C30.9783 20.5936 31 20.0864 31 16.0233C30.9967 11.9619 30.9967 11.4463 30.9034 9.85464ZM15.9883 23.6538C11.7336 23.6538 8.28676 20.2128 8.28676 15.9651C8.28676 11.7174 11.7336 8.27631 15.9883 8.27631C18.0309 8.27631 19.9899 9.08637 21.4342 10.5283C22.8785 11.9702 23.6899 13.9259 23.6899 15.9651C23.6899 18.0043 22.8785 19.9599 21.4342 21.4019C19.9899 22.8438 18.0309 23.6538 15.9883 23.6538ZM23.9964 9.78479C23.7605 9.78501 23.5269 9.73878 23.3089 9.64876C23.091 9.55874 22.8929 9.42668 22.7261 9.26015C22.5593 9.09363 22.427 8.89589 22.3368 8.67827C22.2467 8.46065 22.2004 8.22741 22.2006 7.99191C22.2006 7.75657 22.247 7.52354 22.3372 7.30612C22.4274 7.0887 22.5597 6.89114 22.7263 6.72474C22.893 6.55833 23.0909 6.42633 23.3087 6.33627C23.5265 6.24621 23.7599 6.19986 23.9956 6.19986C24.2313 6.19986 24.4648 6.24621 24.6825 6.33627C24.9003 6.42633 25.0982 6.55833 25.2649 6.72474C25.4316 6.89114 25.5638 7.0887 25.654 7.30612C25.7442 7.52354 25.7907 7.75657 25.7907 7.99191C25.7907 8.98315 24.9877 9.78479 23.9964 9.78479Z" fill="#3C3943"/>
<path d="M16 20C18.2091 20 20 18.2091 20 16C20 13.7909 18.2091 12 16 12C13.7909 12 12 13.7909 12 16C12 18.2091 13.7909 20 16 20Z" fill="#3C3943"/>
</svg>
