<svg width="32" height="43" viewBox="0 0 32 43" fill="none" xmlns="http://www.w3.org/2000/svg">
<path d="M13.087 34.9766C12.4772 33.1976 11.3611 31.6358 9.8755 30.4825L6.22392 27.6477C2.4746 24.737 0.197725 20.3224 0 15.58C0 6.97528 6.97528 0 15.58 0C24.1846 0 31.1599 6.97528 31.1599 15.58C30.9623 20.3228 28.6856 24.7375 24.936 27.6477L21.2844 30.4825C19.7988 31.6358 18.6827 33.1976 18.0729 34.9766L17.6434 36.2291C17.341 37.1106 16.512 37.703 15.5801 37.703C14.6481 37.703 13.819 37.1107 13.5167 36.2291L13.087 34.9766ZM15.5799 43C12.138 43 9.3479 42.5816 9.3479 42.065C9.3479 41.5488 12.138 41.1304 15.5799 41.1304C19.0218 41.1304 21.8119 41.5488 21.8119 42.065C21.8119 42.5816 19.0218 43 15.5799 43ZM12.0201 12.7769V11.1724L12.135 11.0971C12.4344 10.8989 12.6308 10.6805 12.7916 10.3734C12.9482 10.0698 13.0175 9.76237 13.0175 9.37184C13.0175 8.77075 12.8351 8.29475 12.4584 7.91412C12.246 7.69996 11.8873 7.4777 11.7523 7.4777C11.7205 7.4777 11.6491 7.4996 11.5936 7.52539C10.8342 7.87843 10.3978 8.69938 10.4911 9.59594C10.5585 10.2462 10.83 10.7303 11.3141 11.0576L11.4845 11.1745V12.7781C10.4524 12.7805 9.79397 12.7844 9.75112 12.7892C9.19982 12.8489 8.67434 13.0987 8.264 13.4973C7.95835 13.7967 7.74809 14.1239 7.61731 14.4989C7.50034 14.8381 7.49223 14.9014 7.48443 15.663C7.47243 16.5853 7.49643 16.7716 7.6767 17.1999C7.93075 17.807 8.46407 18.3325 9.05525 18.5605C9.82672 18.8559 10.6794 18.7729 11.3576 18.3304C11.5916 18.1778 11.9368 17.8328 12.0895 17.5968C12.3372 17.2179 12.4959 16.7101 12.4959 16.2977C12.4959 16.0874 12.6012 15.9605 12.7737 15.9605C12.9521 15.9605 13.0514 16.0895 13.0514 16.3214C13.0514 16.7161 13.2119 17.2219 13.4578 17.5967C13.6105 17.8328 13.9558 18.1777 14.1897 18.3304C14.4873 18.523 14.759 18.6279 15.1417 18.6975C15.681 18.7944 16.298 18.6933 16.768 18.4318C17.0971 18.2473 17.4522 17.9159 17.6624 17.5967C17.9063 17.2239 18.0689 16.7182 18.0689 16.3214C18.0689 16.0796 18.176 15.9527 18.3784 15.9566C18.5626 15.9584 18.664 16.0814 18.664 16.3037C18.664 16.4663 18.7312 16.8412 18.7947 17.0314C19.0149 17.69 19.5941 18.3029 20.2345 18.5527C20.7759 18.7668 21.3413 18.7905 21.9046 18.6279C22.6404 18.4159 23.2907 17.7929 23.5426 17.0652C23.6677 16.7001 23.6716 16.6606 23.6716 15.782C23.6716 14.9232 23.6677 14.8738 23.5585 14.5325C23.5009 14.3501 23.3026 13.9653 23.1878 13.8165C23.0528 13.638 22.7058 13.309 22.5411 13.1998C22.2594 13.0174 21.9859 12.9023 21.6428 12.8231L21.4502 12.7793L19.6556 12.7781V11.1706L19.82 11.0555C20.3596 10.6787 20.6472 10.0956 20.6472 9.37966C20.6472 8.77077 20.4507 8.27494 20.0599 7.88625C19.9312 7.75937 19.5821 7.52931 19.469 7.49752C19.3382 7.46182 19.239 7.49572 18.9951 7.65619C18.7668 7.80886 18.6442 7.92194 18.4933 8.1223C18.2335 8.47144 18.1085 8.87997 18.1085 9.37968C18.1085 10.0978 18.3961 10.6788 18.9375 11.0555L19.1001 11.1706V12.7778L15.828 12.7757V11.1745L15.9984 11.0576C16.5695 10.6688 16.8751 10.0123 16.8313 9.26268C16.7995 8.67568 16.6331 8.28096 16.2662 7.912C16.1115 7.75723 15.8994 7.60876 15.7128 7.52148C15.5443 7.44409 15.4234 7.48158 15.1138 7.69785C14.7767 7.93601 14.5071 8.30464 14.3901 8.69338C14.3265 8.90574 14.3007 9.09621 14.3007 9.37366C14.3007 9.86947 14.4 10.2207 14.6438 10.5815C14.7509 10.7402 14.9951 10.978 15.1594 11.0851L15.2923 11.1706V12.7753C14.0703 12.7747 12.9383 12.7754 12.0201 12.7769ZM18.4498 18.7944C18.4099 18.7152 18.3703 18.6498 18.3643 18.6498C18.3583 18.6498 18.3385 18.6834 18.3187 18.723C17.9897 19.4252 17.331 20.0242 16.615 20.2759C16.2403 20.4069 15.9566 20.4564 15.5601 20.4564C15.1635 20.4564 14.8798 20.4069 14.5049 20.2759C13.9953 20.0956 13.4676 19.7087 13.1305 19.2644C13.0415 19.1474 12.8489 18.8322 12.7835 18.7011C12.7775 18.6855 12.7697 18.6855 12.7637 18.7011C12.6983 18.8322 12.5061 19.1474 12.4167 19.2644C12.0795 19.7087 11.5519 20.0956 11.0424 20.2759C10.6674 20.4069 10.384 20.4564 9.98716 20.4564C9.59062 20.4564 9.30688 20.4069 8.93227 20.2759C8.43435 20.0995 7.89504 19.7069 7.5756 19.2863L7.47842 19.1594V23.6475H23.6819V19.1594L23.5868 19.2863C23.208 19.7842 22.597 20.1886 21.9665 20.3592C21.5063 20.4843 20.8735 20.4861 20.4194 20.367C19.5705 20.1451 18.8502 19.5697 18.4498 18.7944Z" fill="#FF9827"/>
</svg>
