<svg width="159" height="56" viewBox="0 0 159 56" fill="none" xmlns="http://www.w3.org/2000/svg">
<g clip-path="url(#clip0_1_39)">
<path d="M125.001 38.5969C125.001 33.2924 121.852 30.4888 116.572 31.0096C113.505 31.3123 111.022 32.6899 109.036 35.0515C106.535 29.4745 98.4996 30.0619 93.9702 34.1432C93.9702 33.6164 93.9702 32.4084 93.9702 32.1147C93.9702 30.6311 93.622 30.6371 92.4927 30.6826C90.3248 30.7704 88.1479 30.7371 85.9741 30.6826C85.196 30.6644 84.8871 30.8521 84.8902 31.7029C84.9204 39.1116 84.9235 47.4226 84.8902 54.8314C84.8902 55.7699 85.2565 55.9153 86.0649 55.9001C88.2842 55.8547 90.5035 55.8335 92.7258 55.9001C93.7219 55.9334 94.0095 55.6458 93.9944 54.6436C93.9399 50.4291 93.9672 46.2146 93.9762 42C93.9762 41.5671 93.8975 41.125 94.1579 40.7072C94.8876 39.5325 97.0645 38.7241 98.5541 39.1025C99.8409 39.4295 100.371 40.3409 100.371 42.2453C100.371 46.4144 100.392 50.5865 100.371 54.7557C100.371 55.6125 100.601 55.9183 101.491 55.8941C103.753 55.8396 106.032 55.8335 108.279 55.8941C109.221 55.9213 109.49 55.6216 109.475 54.683C109.43 50.4715 109.451 46.257 109.457 42.0424C109.422 41.6459 109.462 41.2463 109.575 40.8647C110.096 39.6324 112.43 38.718 113.995 39.0753C115.291 39.3781 115.906 40.2864 115.912 42.0122C115.912 46.1813 115.942 50.3534 115.894 54.5225C115.894 55.5156 116.069 55.9425 117.193 55.891C119.363 55.7942 121.543 55.8032 123.714 55.891C124.786 55.9334 125.049 55.5883 125.037 54.5528C124.992 49.2302 125.037 43.9045 125.013 38.5818" fill="white"/>
<path d="M80.8028 30.7401C78.5865 30.7825 76.3642 30.8067 74.1419 30.7401C73.1458 30.7068 72.8612 30.9944 72.8733 31.9966C72.9278 36.2111 72.9005 40.7769 72.8914 44.9763C72.8914 45.4092 72.9702 45.8513 72.7128 46.266C71.9801 47.4438 69.8062 48.2492 68.3166 47.8737C67.0299 47.5468 66.5 46.6354 66.5 44.731C66.5 40.5619 66.4788 36.0537 66.5151 31.8846C66.5151 31.0247 66.285 30.7219 65.3949 30.7461C63.1332 30.8006 60.8534 30.8067 58.6099 30.7461C57.8015 30.7219 57.4957 30.9429 57.4291 31.5878V35.984C57.4291 40.2955 57.4291 44.6069 57.4291 48.9183V50.1475C57.4291 51.6614 58.3192 53.1389 59.4213 54.1411C62.8153 57.2353 69.1099 56.2756 72.9066 52.8543C72.9066 53.3841 72.9066 54.2288 72.9066 54.5256C72.9066 55.891 73.2548 56.0031 74.3841 55.9577C76.5549 55.8668 78.7318 55.9032 80.9027 55.9577C81.6808 55.9577 81.9896 55.7881 81.9866 54.9343C81.9563 47.5286 81.9533 39.2418 81.9866 31.8331C81.9866 30.8915 81.6203 30.7461 80.8119 30.7643" fill="white"/>
<path d="M54.8434 31.9843C54.8827 30.9337 54.5406 30.6794 53.5657 30.6885C51.958 30.6885 45.8148 30.7097 40.4256 30.7127C36.7439 30.7127 32.9351 30.7127 31.83 30.6885C30.8853 30.6885 30.525 30.858 30.525 31.9601C30.525 38.2698 30.6098 36.1988 30.525 38.3182C30.4827 39.3688 30.8278 39.6231 31.8027 39.6141C32.711 39.6141 35.2361 39.6141 38.2335 39.5959C38.2335 41.6366 38.2335 43.8558 38.2335 45.954C38.2335 49.8174 38.2335 53.2417 38.2123 54.4013C38.2123 55.3913 38.3819 55.8212 39.4809 55.7698C41.6003 55.6729 43.7197 55.682 45.8391 55.7698C46.8897 55.8122 47.144 55.467 47.1349 54.4315C47.1198 52.7451 47.1137 46.2992 47.1107 40.6495C47.1107 40.2893 47.1107 39.935 47.1107 39.5838C50.0899 39.5838 52.5817 39.5838 53.5203 39.605C54.4589 39.6262 54.8737 39.4354 54.8252 38.3364C54.7314 36.217 54.7404 34.0976 54.8252 31.9631" fill="white"/>
<path d="M96.7495 7.68119C96.7495 2.37669 93.6008 -0.426951 88.3205 0.0938103C85.2534 0.396578 82.7707 1.77418 80.7846 4.13577C78.2837 -1.44122 70.2482 -0.856876 65.7188 3.21233C65.6918 2.83738 65.6918 2.46098 65.7188 2.08603C65.9399 0.853764 65.3707 0.608518 64.2413 0.653933C62.0735 0.744764 59.8966 0.708431 57.7227 0.653933C56.9446 0.638795 56.6358 0.823482 56.6388 1.67426C56.6691 9.08401 56.6691 16.4928 56.6388 23.9005C56.6388 24.8391 57.0052 24.9844 57.8136 24.9692C60.0328 24.9238 62.2521 24.9026 64.4745 24.9692C65.4706 25.0025 65.7582 24.7149 65.7431 23.7097C65.6886 19.4982 65.7188 15.2837 65.7249 11.0692C65.7249 10.6362 65.6462 10.1942 65.9066 9.77634C66.6362 8.6016 68.8131 7.79321 70.3027 8.17167C71.5895 8.49866 72.1194 9.41 72.1194 11.3144C72.1194 15.4835 72.1406 19.6526 72.1042 23.8248C72.1042 24.6816 72.3343 24.9844 73.2245 24.9632C75.4861 24.9057 77.7508 24.9026 80.0125 24.9632C80.9541 24.9904 81.2236 24.6907 81.2236 23.7521C81.1782 19.5406 81.1994 15.3261 81.2054 11.1115C81.1701 10.715 81.2101 10.3154 81.3235 9.93377C81.8443 8.70151 84.1786 7.78716 85.7439 8.14442C87.0398 8.44719 87.6544 9.35549 87.6605 11.0813C87.6605 15.2504 87.6907 19.4225 87.6423 23.5917C87.6423 24.5817 87.8179 25.0116 88.9412 24.9602C91.112 24.8633 93.2919 24.8724 95.4628 24.9602C96.5346 25.0026 96.798 24.6574 96.7889 23.6219C96.7405 18.2993 96.7889 12.9736 96.7617 7.65091" fill="white"/>
<path d="M52.7755 0.221045C50.5562 0.263433 48.337 0.287654 46.1146 0.221045C45.1185 0.187741 44.8339 0.475369 44.846 1.47753C44.9005 5.69206 44.8733 9.9066 44.8642 14.1211C44.8642 14.5541 44.9429 14.9961 44.6825 15.4109C43.9529 16.5887 41.779 17.3941 40.2863 17.0156C38.9996 16.6916 38.4697 15.7773 38.4697 13.8759C38.4697 9.70677 38.4485 5.53463 38.4849 1.36551C38.4849 0.505647 38.2548 0.202876 37.3646 0.227097C35.103 0.281596 32.8383 0.287651 30.5766 0.227097C29.7712 0.202876 29.4654 0.423896 29.3988 1.06879V5.12892C29.3988 9.44033 29.3988 13.7518 29.3988 18.0602V19.2924C29.3988 20.8063 30.2889 22.2838 31.391 23.2859C34.7851 26.3772 41.0796 25.4204 44.8733 21.9992C44.9003 22.3751 44.9003 22.7525 44.8733 23.1285C44.6523 24.3607 45.2215 24.606 46.3508 24.5576C48.5186 24.4697 50.6985 24.5031 52.8694 24.5576C53.6475 24.5727 53.9563 24.388 53.9533 23.5342C53.923 16.1265 53.923 8.71874 53.9533 1.31101C53.9533 0.369404 53.587 0.224075 52.7786 0.242241" fill="white"/>
<path d="M26.8102 10.0308C26.8102 6.16745 26.8102 2.74315 26.8344 1.58354C26.8344 0.590464 26.6618 0.163565 25.5628 0.215035C23.4434 0.311921 21.324 0.302838 19.2046 0.215035C18.154 0.172648 17.8997 0.517798 17.9088 1.55327C17.9179 2.58873 17.9088 5.53467 17.9269 8.962H10.9633H8.93775C8.93775 5.54678 8.93774 2.6281 8.95894 1.57749C8.95894 0.584412 8.78939 0.157503 7.69034 0.208974C5.57097 0.30586 3.45159 0.296777 1.33221 0.208974C0.284632 0.166586 0.0272795 0.511746 0.0363625 1.54721C0.0363625 3.23363 0.0575568 9.67956 0.0605845 15.3292C0.0605845 19.1925 0.060584 22.6168 0.0363625 23.7764C0.0363625 24.7665 0.208939 25.1964 1.30799 25.145C3.42737 25.0481 5.54674 25.0572 7.66612 25.145C8.71673 25.1874 8.97105 24.8422 8.96197 23.8037C8.95289 22.7652 8.94683 19.8223 8.9438 16.398H14.8326H17.9421C17.9421 19.8132 17.9421 22.7289 17.9209 23.7825C17.9209 24.7726 18.0904 25.2025 19.1895 25.151C21.3089 25.0541 23.4282 25.0632 25.5476 25.151C26.5952 25.1934 26.8525 24.8482 26.8435 23.8097C26.8283 22.1233 26.8192 15.6804 26.8192 10.0308" fill="white"/>
<path d="M157.888 0.620655C155.447 0.678181 153.007 0.735705 150.567 0.675151C149.61 0.65093 149.28 1.02334 149.013 1.86201C147.854 5.49522 146.634 9.11027 145.417 12.7253C145.268 13.1643 145.268 13.6972 144.693 14.0726C144.478 13.4671 144.269 12.8918 144.087 12.3196C142.876 8.79236 141.665 5.27117 140.512 1.72273C140.263 0.965806 139.906 0.68726 139.098 0.711482C136.706 0.781119 134.305 0.817453 131.913 0.74176C130.72 0.702401 130.626 0.983972 131.047 2.03458C133.733 8.74695 136.361 15.4835 138.995 22.2141C139.652 23.8884 138.971 24.8966 137.178 24.939C135.937 24.9602 134.693 24.939 133.451 24.939C130.993 24.939 130.623 24.5636 130.623 22.0748C130.623 17.2305 130.623 12.4044 130.623 7.56616C130.623 4.69592 129.567 2.3646 126.924 0.977919C124.114 -0.496562 119.781 -0.193797 116.732 1.42904C115.538 1.97457 114.424 2.68269 113.423 3.53328C112.762 2.4191 111.787 1.52489 110.619 0.962785C107.552 -0.590416 103.504 -0.142324 100.519 1.38363C100.275 1.49864 100.041 1.63437 99.8197 1.78934L99.6653 1.88622C98.8644 2.39407 98.1491 3.0256 97.5459 3.75733V10.17C97.8585 9.85825 98.1979 9.57459 98.5602 9.32221C98.563 9.32597 98.5667 9.32902 98.5709 9.33113C98.5751 9.33323 98.5797 9.33432 98.5844 9.33432C98.5891 9.33432 98.5937 9.33323 98.5979 9.33113C98.6021 9.32902 98.6058 9.32597 98.6086 9.32221C98.6964 9.24349 98.7903 9.17991 98.8811 9.10725C99.695 8.59702 100.596 8.24185 101.539 8.05967C102.274 8.03731 103.005 8.17255 103.683 8.4563C105.424 9.1678 105.285 10.8149 105.285 12.3348C105.285 16.19 105.285 20.0453 105.285 23.9005C105.285 24.506 105.224 25.0298 106.135 25.0147C108.615 24.9662 111.098 24.9814 113.577 25.0147C114.247 25.0147 114.398 24.7301 114.395 24.1336C114.38 19.3438 114.413 14.554 114.371 9.76425L114.943 9.27074C116.436 7.99912 118.146 7.71754 119.92 8.44115C121.64 9.14357 121.604 10.7513 121.601 12.2924C121.601 16.3767 121.568 20.4671 121.601 24.5393C121.649 29.9316 125.7 33.9494 131.068 33.9796C133.997 33.9938 136.924 33.9938 139.849 33.9796C143.83 33.9585 147.182 31.6998 148.629 27.9758C152.005 19.1955 155.32 10.4152 158.699 1.63493C159.062 0.693321 158.754 0.608541 157.936 0.626707" fill="#FF9827"/>
<path d="M137.654 51.3435C137.654 52.1579 137.412 52.954 136.96 53.6311C136.507 54.3083 135.864 54.836 135.112 55.1477C134.359 55.4593 133.531 55.5409 132.733 55.382C131.934 55.2231 131.2 54.831 130.624 54.2551C130.048 53.6792 129.656 52.9455 129.497 52.1468C129.338 51.348 129.42 50.5201 129.732 49.7677C130.043 49.0153 130.571 48.3722 131.248 47.9198C131.925 47.4673 132.721 47.2258 133.536 47.2258C134.628 47.2258 135.675 47.6596 136.447 48.4319C137.22 49.2041 137.654 50.2514 137.654 51.3435Z" fill="#FF9827"/>
</g>
<defs>
<clipPath id="clip0_1_39">
<rect width="158.799" height="56" fill="white"/>
</clipPath>
</defs>
</svg>
