<svg width="32" height="32" viewBox="0 0 32 32" fill="none" xmlns="http://www.w3.org/2000/svg">
<path d="M16.0003 0C7.16459 0 0 7.16268 0 15.9997C0 24.836 7.16459 32 16.0003 32C24.838 32 32.0006 24.836 32.0006 15.9997C32.0006 7.16268 24.838 0 16.0003 0ZM24.5948 23.4748L23.2956 24.7776C23.0585 25.0078 22.3797 25.1574 22.3537 25.1574C18.2355 25.1936 14.269 23.5708 11.3496 20.6516C8.4215 17.7271 6.79448 13.7409 6.84579 9.60498C6.84579 9.60151 6.99485 8.94326 7.2203 8.71138L8.53232 7.4078C9.00133 6.92962 9.92645 6.7074 10.5651 6.92664L10.8404 7.01419C11.4761 7.23493 12.1483 7.9398 12.3238 8.59359L12.9831 10.9964C13.1562 11.6522 12.9173 12.5818 12.4434 13.0595L11.5758 13.9305C12.4295 17.0923 14.9092 19.5779 18.0693 20.431L18.9473 19.5624C19.422 19.0825 20.3538 18.8426 21.0053 19.0209L23.4143 19.6759C24.0676 19.8565 24.768 20.5224 24.9816 21.1673L25.0776 21.4451C25.2886 22.0832 25.0768 22.9984 24.5952 23.4749L24.5948 23.4748Z" fill="#FF9827"/>
</svg>
