<svg width="189" height="211" viewBox="0 0 189 211" fill="none" xmlns="http://www.w3.org/2000/svg">
<path d="M102.141 89.0154C92.3559 83.3942 81.2834 80.3991 69.999 80.3211C99.8323 56.2794 135.4 40.4007 173.216 34.2407C175.494 34.01 177.7 33.3156 179.699 32.2003C181.699 31.085 183.448 29.5724 184.841 27.7556C186.234 25.9387 187.24 23.8561 187.798 21.6358C188.355 19.4156 188.453 17.1047 188.084 14.8454C187.715 12.586 186.888 10.4261 185.653 8.4984C184.418 6.57076 182.802 4.91621 180.904 3.63656C179.006 2.35691 176.866 1.47924 174.616 1.05758C172.366 0.635917 170.053 0.679186 167.82 1.18471C90.1985 13.6092 32.3679 59.4754 11.0906 96.3289C3.71513 109.248 0.214667 124.017 1.00735 138.873C1.80002 153.728 6.85235 168.041 15.5608 180.102C21.2726 188.549 28.8462 195.572 37.6988 200.632C45.0611 205.374 53.3098 208.571 61.9445 210.029C70.5793 211.488 79.4203 211.178 87.9315 209.117C96.4428 207.057 104.447 203.289 111.459 198.043C118.47 192.797 124.343 186.181 128.722 178.597C133.1 171.013 135.893 162.619 136.931 153.924C137.968 145.228 137.229 136.413 134.758 128.012C132.286 119.611 128.135 111.799 122.554 105.05C116.974 98.3015 110.081 92.7565 102.293 88.7513L102.141 89.0154Z" fill="#293329"/>
</svg>
