<svg width="188" height="212" viewBox="0 0 188 212" fill="none" xmlns="http://www.w3.org/2000/svg">
<path d="M101.992 89.0586C92.2012 83.4502 81.1322 80.456 69.8496 80.3642C99.7065 56.2929 135.331 40.4351 173.199 34.3601C175.375 33.9972 177.457 33.2092 179.328 32.0414C181.199 30.8735 182.822 29.3485 184.104 27.5536C185.385 25.7586 186.301 23.7287 186.798 21.5799C187.295 19.4311 187.364 17.2055 187.001 15.03C186.638 12.8545 185.85 10.7718 184.682 8.90076C183.515 7.02977 181.99 5.40713 180.195 4.12548C178.4 2.84384 176.37 1.9283 174.221 1.43112C172.072 0.933939 169.847 0.864867 167.671 1.22784C90.0491 13.6523 32.2186 59.5186 10.9413 96.372C3.50903 109.455 0.0470275 124.419 0.977957 139.437C1.90888 154.456 7.19244 168.878 16.1835 180.943C21.7626 189.167 29.0984 196.049 37.6611 201.092C45.0234 205.834 53.272 209.031 61.9068 210.489C70.5416 211.948 79.3826 211.637 87.8938 209.577C96.4051 207.516 104.409 203.749 111.421 198.503C118.433 193.256 124.306 186.641 128.684 179.057C133.063 171.473 135.855 163.079 136.893 154.384C137.93 145.688 137.191 136.873 134.72 128.472C132.249 120.07 128.097 112.259 122.517 105.51C116.936 98.7613 110.043 93.2163 102.256 89.2111L101.992 89.0586Z" fill="#293329"/>
</svg>
