<svg width="32" height="32" viewBox="0 0 32 32" fill="none" xmlns="http://www.w3.org/2000/svg">
<path d="M26.8799 9.12C23.0399 3.2 15.1999 1.44 9.11989 5.12C3.19989 8.8 1.27989 16.8 5.11989 22.72L5.43989 23.2L4.15989 28L8.95989 26.72L9.43989 27.04C11.5199 28.16 13.7599 28.8 15.9999 28.8C18.3999 28.8 20.7999 28.16 22.8799 26.88C28.7999 23.04 30.5599 15.2 26.8799 9.12ZM23.5199 21.44C22.8799 22.4 22.0799 23.04 20.9599 23.2C20.3199 23.2 19.5199 23.52 16.3199 22.24C13.5999 20.96 11.3599 18.88 9.75989 16.48C8.79989 15.36 8.31989 13.92 8.15989 12.48C8.15989 11.2 8.63989 10.08 9.43989 9.28C9.75989 8.96 10.0799 8.8 10.3999 8.8H11.1999C11.5199 8.8 11.8399 8.8 11.9999 9.44C12.3199 10.24 13.1199 12.16 13.1199 12.32C13.2799 12.48 13.2799 12.8 13.1199 12.96C13.2799 13.28 13.1199 13.6 12.9599 13.76C12.7999 13.92 12.6399 14.24 12.4799 14.4C12.1599 14.56 11.9999 14.88 12.1599 15.2C12.7999 16.16 13.5999 17.12 14.3999 17.92C15.3599 18.72 16.3199 19.36 17.4399 19.84C17.7599 20 18.0799 20 18.2399 19.68C18.3999 19.36 19.1999 18.56 19.5199 18.24C19.8399 17.92 19.9999 17.92 20.3199 18.08L22.8799 19.36C23.1999 19.52 23.5199 19.68 23.6799 19.84C23.8399 20.32 23.8399 20.96 23.5199 21.44Z" fill="#293329"/>
</svg>
